<svg fill="none" height="24" viewBox="0 0 24 24" width="24" xmlns="http://www.w3.org/2000/svg">
  <path
    d="M2 6C2 4.89543 2.89543 4 4 4H20C21.1046 4 22 4.89543 22 6V18C22 19.1046 21.1046 20 20 20H4C2.89543 20 2 19.1046 2 18V6Z"
    fill="#7B96D4"/>
  <path d="M13.9629 16V7.51562H15.7207V14.5469H19.377V16H13.9629Z" fill="white"/>
  <path
    d="M8.10352 13.0586H9.61523L10.2598 13.8906C10.6641 13.416 10.8926 12.7012 10.8926 11.7578C10.8926 9.94141 10.0371 8.95703 8.72461 8.95703C7.41211 8.95703 6.54492 9.94141 6.54492 11.7578C6.54492 13.5742 7.41211 14.5586 8.72461 14.5586C8.89453 14.5586 9.05859 14.541 9.2168 14.5117L8.10352 13.0586ZM12.6855 11.7578C12.6855 13.2695 12.1699 14.4355 11.3379 15.168L12.5449 16.7031H10.8926L10.2129 15.8477C9.75586 16.0293 9.25195 16.1172 8.72461 16.1172C6.46289 16.1172 4.75195 14.5117 4.75195 11.7578C4.75195 8.99219 6.46289 7.39844 8.72461 7.39844C10.9629 7.39844 12.6855 8.99219 12.6855 11.7578Z"
    fill="white"/>
</svg>
