<svg fill="none" height="24" viewBox="0 0 24 24" width="24" xmlns="http://www.w3.org/2000/svg">
  <defs>
    <clipPath id="clip0_15_557">
      <rect fill="white" height="20" transform="translate(2 2)" width="20"/>
    </clipPath>
  </defs>
  <g clip-path="url(#clip0_15_557)">
    <g mask="url(#mask0_15_557)">
      <path
        d="M21.6 12.2273C21.6 11.5182 21.5364 10.8364 21.4182 10.1818H12V14.05H17.3818C17.15 15.3 16.4455 16.3591 15.3864 17.0682V19.5773H18.6182C20.5091 17.8364 21.6 15.2727 21.6 12.2273Z"
        fill="#4285F4"/>
      <path
        d="M12.0001 22C14.7001 22 16.9637 21.1045 18.6182 19.5773L15.3864 17.0682C14.491 17.6682 13.3455 18.0227 12.0001 18.0227C9.39552 18.0227 7.19102 16.2636 6.40462 13.9H3.06372V16.4909C4.70922 19.7591 8.09102 22 12.0001 22Z"
        fill="#34A853"/>
      <path
        d="M6.4045 13.9001C6.2045 13.3001 6.0909 12.6592 6.0909 12.0001C6.0909 11.341 6.2045 10.7001 6.4045 10.1001V7.50916H3.0636C2.3864 8.85916 2 10.3865 2 12.0001C2 13.6137 2.3864 15.141 3.0636 16.491L6.4045 13.9001Z"
        fill="#FBBC04"/>
      <path
        d="M12.0001 5.9773C13.4682 5.9773 14.7864 6.4818 15.8228 7.4727L18.691 4.6045C16.9592 2.9909 14.6955 2 12.0001 2C8.09102 2 4.70922 4.2409 3.06372 7.5091L6.40462 10.1C7.19102 7.7364 9.39552 5.9773 12.0001 5.9773Z"
        fill="#E94235"/>
    </g>
    <mask style="mask-type:luminance" height="20" id="mask0_15_557" maskUnits="userSpaceOnUse" width="20"
      x="2" y="2">
      <path d="M22 2H2V22H22V2Z" fill="white"/>
    </mask>
  </g>
</svg>
